<!--
Global site brand with icon and gaitq lettering

CSS classes

.site__logo
  .site__logo--group
    .site__logo__icon
      .site__logo--curve
      .site__logo--legvert
      .site__logo--leg45

    .site__logo--g
    .site__logo--a

    .site__logo__i
      .site__logo--idash
      .site__logo--idot
    .site__logo--t
    .site__logo--Q
-->

<?xml version="1.0" encoding="UTF-8"?>
<!DOCTYPE svg PUBLIC "-//W3C//DTD SVG 1.1//EN" "http://www.w3.org/Graphics/SVG/1.1/DTD/svg11.dtd">
<svg class="site__logo" version="1.1" xmlns="http://www.w3.org/2000/svg" xmlns:xlink="http://www.w3.org/1999/xlink" x="0" y="0" viewBox="0, 0, 203.879, 62.658">
  <g class="site__logo--group" id="Layer_1" transform="translate(-38.673, -42.934)">

    <g class="site__logo__icon">
      <path class="site__logo--curve" d="M62.853,101.653 C62.844,101.653 62.837,101.656 62.828,101.656 C51.659,101.642 42.608,92.585 42.608,81.413 C42.608,70.248 51.648,61.195 62.808,61.171 C62.813,61.171 62.817,61.172 62.823,61.172 C63.91,61.172 64.793,60.29 64.793,59.203 C64.793,58.125 63.927,57.253 62.853,57.236 L62.853,57.233 C62.845,57.233 62.837,57.234 62.829,57.234 C62.827,57.234 62.825,57.233 62.823,57.233 C62.819,57.233 62.816,57.234 62.813,57.234 C49.477,57.256 38.673,68.072 38.673,81.413 C38.673,94.767 49.499,105.593 62.853,105.593 C63.94,105.593 64.823,104.71 64.823,103.623 C64.823,102.535 63.94,101.653 62.853,101.653" />

      <path class="site__logo--legvert" d="M62.855,105.593 C61.768,105.593 60.887,104.711 60.887,103.625 L60.887,82.648 C60.887,81.561 61.768,80.681 62.855,80.681 C63.941,80.681 64.823,81.561 64.823,82.648 L64.823,103.625 C64.823,104.711 63.941,105.593 62.855,105.593" />

      <path class="site__logo--leg45" d="M79.079,98.873 C78.311,99.641 77.065,99.641 76.296,98.873 L61.463,84.04 C60.695,83.271 60.695,82.025 61.463,81.257 C62.232,80.488 63.478,80.488 64.246,81.257 L79.079,96.089 C79.847,96.858 79.847,98.104 79.079,98.873" />
    </g>

    <path class="site__logo--g" d="M124.701,74.191 C124.158,79.674 119.722,84.11 114.239,84.653 C106.829,85.386 100.652,79.21 101.386,71.799 C101.929,66.316 106.364,61.881 111.847,61.338 C119.258,60.603 125.436,66.78 124.701,74.191 z M126.679,58.25 C125.619,58.25 124.761,59.108 124.761,60.168 L124.761,62.667 C121.727,59.227 117.206,57.132 112.202,57.394 C104.358,57.806 97.937,64.162 97.452,72.001 C96.89,81.079 104.086,88.618 113.043,88.618 C117.711,88.618 121.898,86.568 124.761,83.323 L124.761,89.562 C124.761,95.287 120.146,100.798 114.46,101.464 C107.385,102.295 101.376,96.814 101.327,89.917 C101.32,88.97 100.69,88.094 99.762,87.916 C98.513,87.675 97.421,88.626 97.421,89.831 C97.421,98.841 105.049,106.071 114.2,105.412 C122.171,104.838 128.667,97.504 128.667,89.511 L128.667,60.237 C128.667,59.139 127.776,58.25 126.679,58.25"  />

    <path class="site__logo--a" d="M153.377,84.922 C146.856,84.922 141.57,79.635 141.57,73.115 C141.57,66.593 146.856,61.307 153.377,61.307 C159.896,61.307 165.18,66.59 165.184,73.107 L165.184,73.122 C165.18,79.639 159.896,84.922 153.377,84.922 z M169.12,73.115 C169.12,73.11 169.12,73.105 169.12,73.1 L169.12,59.785 C169.12,58.699 168.239,57.817 167.152,57.817 C166.065,57.817 165.184,58.699 165.184,59.785 L165.184,62.707 C162.299,59.437 158.081,57.372 153.377,57.372 C144.683,57.372 137.635,64.421 137.635,73.115 C137.635,81.809 144.683,88.857 153.377,88.857 C158.081,88.857 162.299,86.792 165.184,83.522 L165.184,86.349 C165.184,87.435 166.065,88.317 167.152,88.317 C168.239,88.317 169.12,87.435 169.12,86.349 L169.12,73.129 C169.12,73.124 169.12,73.12 169.12,73.115" />

    <g class="site__logo__i">
        <path class="site__logo--idash" d="M182.438,88.935 L182.438,88.935 C181.351,88.935 180.47,88.054 180.47,86.967 L180.47,59.418 C180.47,58.331 181.351,57.45 182.438,57.45 C183.525,57.45 184.406,58.331 184.406,59.418 L184.406,86.967 C184.406,88.054 183.525,88.935 182.438,88.935" />

        <path class="site__logo--idot" d="M184.406,51.547 C184.406,52.633 183.525,53.514 182.438,53.514 C181.351,53.514 180.47,52.633 180.47,51.547 C180.47,50.46 181.351,49.579 182.438,49.579 C183.525,49.579 184.406,50.46 184.406,51.547" />
    </g>

    <path class="site__logo--t" d="M207.16,54.501 L199.691,54.501 L199.691,44.902 C199.691,43.815 198.811,42.934 197.724,42.934 C196.637,42.934 195.756,43.815 195.756,44.902 L195.756,86.967 C195.756,88.054 196.637,88.935 197.724,88.935 C198.811,88.935 199.691,88.054 199.691,86.967 L199.691,58.436 L207.16,58.436 C208.247,58.436 209.127,57.554 209.127,56.468 C209.127,55.382 208.247,54.501 207.16,54.501" />

    <path class="site__logo--Q" d="M220.33,82.985 C214.878,79.408 213.359,72.088 216.937,66.636 C220.515,61.184 227.834,59.666 233.286,63.244 C238.737,66.822 240.257,74.141 236.679,79.592 C236.479,79.898 236.263,80.186 236.041,80.465 L229.622,74.048 C228.854,73.279 227.608,73.279 226.84,74.048 C226.071,74.816 226.071,76.062 226.84,76.831 L233.103,83.093 C229.31,85.482 224.321,85.605 220.33,82.985 z M238.833,83.258 C239.234,82.782 239.619,82.286 239.969,81.753 C244.74,74.484 242.714,64.724 235.446,59.954 C228.177,55.183 218.417,57.208 213.647,64.476 C208.876,71.746 210.901,81.506 218.17,86.276 C223.755,89.941 230.802,89.581 235.936,85.926 L238.368,88.359 C239.136,89.127 240.382,89.127 241.151,88.359 C241.919,87.59 241.919,86.344 241.151,85.576 L238.833,83.258"/>

  </g>
</svg>
