<?xml version="1.0" encoding="UTF-8"?>
<!DOCTYPE svg PUBLIC "-//W3C//DTD SVG 1.1//EN" "http://www.w3.org/Graphics/SVG/1.1/DTD/svg11.dtd">
<svg version="1.1" xmlns="http://www.w3.org/2000/svg" xmlns:xlink="http://www.w3.org/1999/xlink" x="0" y="0"  viewBox="0, 0, 687.044, 145.204">

  <g id="brand" class="brand">
    <path class="brand-art" d="M30.511,112.466 C27.912,115.077 26.613,118.225 26.613,121.911 C26.613,125.521 27.912,128.631 30.511,131.241 C33.111,133.852 36.208,135.157 39.802,135.157 C43.471,135.157 46.607,133.852 49.205,131.241 C51.803,128.631 53.105,125.521 53.105,121.911 C53.105,118.225 51.803,115.077 49.205,112.466 C46.607,109.856 43.471,108.549 39.802,108.549 C36.208,108.549 33.111,109.856 30.511,112.466 M4.019,85.859 C1.42,88.47 0.121,91.618 0.121,95.303 C0.121,98.913 1.42,102.023 4.019,104.633 C6.618,107.245 9.716,108.549 13.309,108.549 C16.979,108.549 20.115,107.245 22.713,104.633 C25.311,102.023 26.613,98.913 26.613,95.303 C26.613,91.618 25.311,88.47 22.713,85.859 C20.115,83.248 16.979,81.942 13.309,81.942 C9.716,81.942 6.618,83.248 4.019,85.859 M3.898,32.644 C1.3,35.255 0,38.403 0,42.089 C0,45.699 1.3,48.809 3.898,51.419 C6.498,54.03 9.595,55.335 13.189,55.335 C16.859,55.335 19.994,54.03 22.593,51.419 C25.191,48.809 26.492,45.699 26.492,42.089 C26.492,38.403 25.191,35.255 22.593,32.644 C19.994,30.034 16.859,28.728 13.189,28.728 C9.595,28.728 6.498,30.034 3.898,32.644 M30.511,59.251 C27.912,61.862 26.613,65.01 26.613,68.696 C26.613,72.306 27.912,75.416 30.511,78.026 C33.111,80.637 36.208,81.942 39.802,81.942 C43.471,81.942 46.607,80.637 49.205,78.026 C51.803,75.416 53.105,72.306 53.105,68.696 C53.105,65.01 51.803,61.862 49.205,59.251 C46.607,56.641 43.471,55.335 39.802,55.335 C36.208,55.335 33.111,56.641 30.511,59.251 M12.478,138.116 L12.478,25.777 C26.853,11.402 46.712,2.51 68.647,2.51 C112.518,2.51 148.083,38.075 148.083,81.946 C148.083,103.882 139.192,123.741 124.817,138.116 z" />

    <path class="brand-gait" d="M304.17,27.423 L294.15,36.916 C286.942,29.827 279.046,24.449 270.462,20.787 C261.878,17.126 253.513,15.294 245.368,15.294 C235.231,15.294 225.576,17.785 216.406,22.765 C207.235,27.745 200.13,34.499 195.091,43.025 C190.052,51.55 187.532,60.56 187.532,70.052 C187.532,79.78 190.14,89.025 195.355,97.784 C200.57,106.544 207.777,113.429 216.977,118.439 C226.177,123.449 236.256,125.954 247.213,125.954 C260.515,125.954 271.766,122.205 280.965,114.704 C290.165,107.203 295.615,97.476 297.314,85.522 L256.091,85.522 L256.091,73.041 L311.817,73.041 C311.7,93.024 305.767,108.889 294.018,120.637 C282.269,132.385 266.55,138.26 246.862,138.26 C222.954,138.26 204.027,130.116 190.081,113.825 C179.358,101.286 173.996,86.783 173.996,70.317 C173.996,58.069 177.073,46.673 183.225,36.125 C189.378,25.577 197.816,17.33 208.539,11.382 C219.263,5.436 231.392,2.461 244.928,2.461 C255.886,2.461 266.199,4.439 275.867,8.394 C285.536,12.349 294.97,18.692 304.17,27.423" />

    <path class="brand-gait" d="M380.508,48.782 C373.659,48.782 367.337,50.466 361.543,53.831 C355.747,57.197 351.141,61.924 347.715,68.011 C344.292,74.097 342.579,80.535 342.579,87.324 C342.579,94.057 344.306,100.495 347.758,106.639 C351.21,112.785 355.85,117.57 361.672,120.993 C367.495,124.419 373.746,126.13 380.419,126.13 C387.15,126.13 393.529,124.433 399.559,121.037 C405.586,117.643 410.223,113.049 413.473,107.255 C416.723,101.461 418.346,94.934 418.346,87.676 C418.346,76.615 414.703,67.367 407.415,59.932 C400.128,52.499 391.159,48.782 380.508,48.782 M429.684,39.377 L429.684,135.008 L417.555,135.008 L417.555,118.571 C412.398,124.843 406.611,129.558 400.195,132.722 C393.779,135.886 386.762,137.469 379.145,137.469 C365.609,137.469 354.051,132.561 344.469,122.746 C334.889,112.932 330.098,100.992 330.098,86.929 C330.098,73.159 334.934,61.382 344.602,51.595 C354.271,41.809 365.902,36.916 379.495,36.916 C387.348,36.916 394.452,38.586 400.811,41.926 C407.168,45.266 412.749,50.276 417.555,56.956 L417.555,39.377 z" />

    <path class="brand-gait" d="M455.526,39.377 L467.832,39.377 L467.832,135.007 L455.526,135.007 z M461.634,0 C464.435,0 466.827,0.997 468.81,2.988 C470.792,4.981 471.786,7.383 471.786,10.195 C471.786,12.951 470.792,15.324 468.81,17.315 C466.827,19.307 464.435,20.303 461.634,20.303 C458.893,20.303 456.53,19.307 454.544,17.315 C452.562,15.324 451.571,12.951 451.571,10.195 C451.571,7.383 452.562,4.981 454.544,2.988 C456.53,0.997 458.893,0 461.634,0" />

    <path class="brand-gait" d="M504.133,3.867 L516.439,3.867 L516.439,39.377 L535.951,39.377 L535.951,50.012 L516.439,50.012 L516.439,135.007 L504.133,135.007 L504.133,50.012 L487.345,50.012 L487.345,39.377 L504.133,39.377 z" />

    <path class="brand-q" d="M656.791,110.851 C668.051,99.884 673.684,86.365 673.684,70.291 C673.684,60.024 671.296,50.74 666.52,42.44 C661.744,34.139 655.02,27.497 646.348,22.51 C637.676,17.524 628.534,15.03 618.925,15.03 C609.256,15.03 600.145,17.51 591.589,22.465 C583.034,27.42 576.353,34.134 571.549,42.607 C566.744,51.081 564.342,60.508 564.342,70.888 C564.342,86.252 569.645,99.229 580.251,109.813 C590.856,120.399 603.66,125.691 618.661,125.691 C628.915,125.691 638.296,123.198 646.8,118.21 L618.009,81.655 L633.691,81.655 z M664.787,120.962 L683.968,145.204 L668.059,145.204 L654.894,128.489 C644.331,135.004 632.437,138.26 619.208,138.26 C600.066,138.26 583.908,131.698 570.738,118.571 C557.566,105.446 550.981,89.566 550.981,70.932 C550.981,58.509 553.996,46.98 560.027,36.345 C566.061,25.709 574.271,17.403 584.667,11.426 C595.061,5.45 606.466,2.461 618.881,2.461 C638.029,2.461 654.178,9.009 667.323,22.106 C680.469,35.202 687.044,51.302 687.044,70.405 C687.044,80.367 685.242,89.478 681.639,97.74 C678.034,106.002 672.417,113.742 664.787,120.962" />
  </g>
</svg>
